<svg width="100" height="120" viewBox="0 0 100 120" xmlns="http://www.w3.org/2000/svg" role="img" aria-label="Mi Selección Colombia">
  <defs>
    <clipPath id="shield">
      <path d="M 12,0 L 88,0 Q 100,0 100,12 L 100,80 L 50,120 L 0,80 L 0,12 Q 0,0 12,0 Z"/>
    </clipPath>
  </defs>
  <rect x="0" y="0"  width="100" height="60" fill="#FCD116" clip-path="url(#shield)"/>
  <rect x="0" y="60" width="100" height="30" fill="#003087" clip-path="url(#shield)"/>
  <rect x="0" y="90" width="100" height="30" fill="#CE1126" clip-path="url(#shield)"/>
  <path d="M 12,0 L 88,0 Q 100,0 100,12 L 100,80 L 50,120 L 0,80 L 0,12 Q 0,0 12,0 Z" fill="none" stroke="rgba(255,255,255,0.14)" stroke-width="1.5"/>
  <polygon points="50,15 59.5,20.5 59.5,31.5 50,37 40.5,31.5 40.5,20.5" fill="none" stroke="rgba(0,0,0,0.22)" stroke-width="2.5"/>
  <polyline points="18,82 36,97 82,56" fill="none" stroke="white" stroke-width="5.5" stroke-linecap="round" stroke-linejoin="round" opacity="0.95"/>
</svg>
